<?xml version="1.0" encoding="utf-8"?>
<!-- Generator: Adobe Illustrator 22.1.0, SVG Export Plug-In . SVG Version: 6.00 Build 0)  -->
<svg version="1.1" id="Layer_1" xmlns="http://www.w3.org/2000/svg" xmlns:xlink="http://www.w3.org/1999/xlink" x="0px" y="0px"
	 viewBox="0 0 200.4 64.7" style="enable-background:new 0 0 200.4 64.7;" xml:space="preserve">
<style type="text/css">
	.st0{fill:#342D25;}
</style>
<title>TaxonWorks</title>
<path class="st0" d="M15.8,26.2c1.6,0,2.2,2.1,2.2,2.1s0.8,2.4,2.4,2.4c1.2,0,1.5-1,1.5-1.4c0,0,0,0,0-0.1c0,0,0-0.1,0-0.1
	c0,0,0,0,0,0c0-0.3-0.1-0.6-0.4-0.8l0,0c-0.5-0.2-0.9-0.5-1.3-0.9c-1-1.2-0.5-2.7,0.7-3.7c-0.6-0.6-1.3-1.4-1.9-1.7
	c-1.4-0.7-2.5,0.4-2.6,0.5l0,0c-0.1,0.1-0.2,0.3-0.3,0.4l0,0c-0.1,0.1-0.2,0.3-0.3,0.4l0,0c-0.1,0.1-0.2,0.3-0.2,0.4l0,0.1
	c-0.2,0.3-0.3,0.6-0.5,0.9l0,0.1c-0.1,0.1-0.1,0.3-0.2,0.4l0,0c-0.1,0.1-0.1,0.3-0.2,0.5l0,0.1c-0.1,0.1-0.1,0.2-0.1,0.4l0,0.1
	c-0.1,0.2-0.1,0.3-0.2,0.5l0,0.1c0,0,0,0.1,0,0.1C14.6,26.4,15.2,26.2,15.8,26.2z"/>
<path class="st0" d="M19.2,21.4c0.8,0.3,1.8,1.1,2.5,1.7c0.1,0,0.2-0.1,0.3-0.1c0.4-0.2,0.7-0.3,1.1-0.4c-0.4-0.8-0.9-2-0.8-2.9
	c0.2-1.8,2.1-1.9,2.1-1.9s-1.8,0.4-1.7,2c0.1,0.8,0.7,2,1.2,2.6c1.1,0,2,0.4,2.5,1.3c0,0.1,0.1,0.2,0.1,0.3l0,0
	c0.1,0.2,0.2,0.3,0.4,0.4c0.6,0.2,1.2,0.4,1.8,0.7c0.9,0.4,1.8,0.8,2.7,1.3c0.1,0,0.2,0,0.2-0.1c0-0.1,0-0.1,0-0.1
	c-4.3-4.1-1.3-5.7-1.3-5.7c-1.5,2.2,1,3.9,4,5.5c2.6,1.5,4.5,3.1,6.5,2c1-0.5,0.3-1.7-0.2-2.4c-0.3-0.5-0.6-0.9-0.9-1.5
	c-0.2-0.3-0.2-0.7-0.1-1c0.1-0.5-0.1-1.1-0.4-1.7c-0.3-0.4-0.8-0.9-1.2-1.2c-0.3-0.2-0.5-0.4-0.7-0.7c-1.4-2-5.1-2.8-5.1-2.8l0,0
	c-3.5-0.8-7.1-0.4-10.3,1.2l0,0c-1.1,0.5-2.1,1.2-3.1,2l-0.1,0.1c-0.2,0.2-0.4,0.4-0.7,0.6l0,0c-0.1,0.1-0.2,0.2-0.4,0.4l0,0
	c-0.2,0.2-0.5,0.5-0.7,0.8l0,0l-0.1,0.1C17.5,21.4,18.2,21.1,19.2,21.4z M36.5,21.6c0.6-0.3,1.3,0,1.6,0.6c0.1,0.2,0.1,0.4,0.1,0.6
	C37.8,23,37.3,23,37,22.7C36.6,22.4,36.4,22,36.5,21.6L36.5,21.6z"/>
<path class="st0" d="M21.9,33.1c0-0.3-0.1-0.6-0.1-1c-0.4,0.2-0.7,0.2-1.1,0.2c-3,0-3.1-3-4.1-4.6c-1.1-1.7-2.6,0.1-2.8,1.1
	c0,0,0,0.1,0,0.1c0,0.1,0,0.2-0.1,0.3c0,0,0,0.1,0,0.1c0,0.1,0,0.2,0,0.4c0,0,0,0.1,0,0.1c0,0.2,0,0.3,0,0.5c0,0,0,0,0,0.1
	c0,0.1,0,0.3,0,0.4c0,0,0,0.1,0,0.1c0,0.1,0,0.3,0,0.4c0,0,0,0,0,0.1s0,0,0,0c0,0,0,0,0,0c0,0.1,0,0.1,0,0.2s0,0.1,0,0.2
	c0,0.1,0,0.2,0,0.3c0,0,0,0.1,0,0.1c0.2,4.8,2.7,9.3,6.8,12c-1.3-1.2-2-2.8-2-4.5c0-2.1,1.2-4.1,3-5.4
	C21.7,34.1,21.9,33.6,21.9,33.1z"/>
<path class="st0" d="M33.7,43c-0.9,0.4-1.9,0.6-2.9,0.7c-0.2,0-0.3,0-0.5,0c-1.9,0-4.5-0.8-6.4-4l-0.3-0.4c-0.3,0.4-0.5,0.9-0.5,1.5
	c0,2.2,2.6,4.2,5.8,4.2c0.8,0,1.7-0.1,2.5-0.3c-0.7,0.5-2.2,0.9-3.4,0.9c-3.6,0-6.6-2.4-6.6-5.2c0-1,0.3-2,0.9-2.8
	c0.2-0.3,0.3-0.7,0.2-1.1l0,0c-1.7,1-2.7,2.4-2.7,4.2c0,2.7,2.4,5,5.8,6c0.2,0,0.4,0.1,0.6,0.1c2.5,0.4,4.6,0,6.1-1.4
	C33,44.6,33.4,43.8,33.7,43z"/>
<path class="st0" d="M40.4,21.6c4.4,6.2,3,14.8-3.2,19.2c-0.4,0.3-0.8,0.5-1.2,0.8l0,0c0-0.1,0-0.1,0-0.2c0.1-0.6,0.3-1.2,0.7-1.7
	c1.2-1.7,2-4.3,0-7.6c-1.1-1.8-3.4-4.4-8.1-6.3c-0.7-0.3-1.3-0.5-1.9-0.7L26.4,25l0,0c-0.2-0.1-0.3-0.1-0.5-0.1h0l-0.5-0.1h0
	l-0.2-0.1h0l-0.4-0.1h0l-0.4-0.1h0l-0.2,0l0,0l-0.1-0.1h0l-0.1,0h0l-0.1,0h0l-0.1,0h0l-0.1,0l0,0.1v0l0,0.1l0,0l0,0l0,0l0,0.1l0,0
	l0,0.1l0,0l0,0.1l0,0l0,0.1l0,0l0,0.1l0,0l0,0.1l0,0.1l0,0.1l0,0.1l0,0.1l0,0.1l0,0.1l0,0.1l0,0.1l0,0.1l0,0.1l0,0.1l0,0.1l0,0.1
	l0,0.1l0,0.1l0,0.1l0,0.1l0,0.1l0,0.1l0,0.1l0,0.1l0,0.1l0,0.1l0,0.1l0,0.1l0,0.2l0,0.1l0,0.1l0,0.1l0,0.1l0,0.1l0,0.1l0,0.1l0,0.1
	l0,0.1l0,0.1l0,0.1l0,0.1l0,0.1c0,0.3-0.1,0.6-0.1,0.9v0c0,0.1,0,0.2,0,0.3l0,0c0,0.1,0,0.2,0,0.3v0c0,0.1,0,0.2,0,0.3l0,0
	c0,0.5,0,1,0,1.5c0,0.7,0.1,1.3,0.1,2c0,0.1,0,0.1,0,0.2c0.1,0.9,0.3,1.8,0.6,2.7c0.2,0.7,0.5,1.4,0.8,2.1c0.1,0.3,0.3,0.5,0.4,0.8
	c1.5,2.4,3.4,3.6,5.8,3.6c0.2,0,0.3,0,0.5,0c1.1-0.1,2.2-0.4,3.2-0.9c0.8-3.9-1.3-9.3-5.7-13.9c-0.6-0.6-1.2-1.2-1.9-1.8
	c1.5,1.1,2.2,1.7,3,2.6c6,6.2,7.8,14.1,4.2,17.6c-0.5,0.5-1.2,0.9-1.9,1.2c0.9-0.2,1.7-0.7,2.4-1.4c0.2-0.2,0.4-0.4,0.6-0.7
	c7.8-3.3,11.5-12.2,8.2-20C42.3,24.2,41.5,22.8,40.4,21.6z"/>
<path class="st0" d="M65.7,23.2H54v2.2h4.5v15.1h1c0.9,0,1.7-0.7,1.7-1.7V25.4h4.5L65.7,23.2L65.7,23.2z"/>
<path class="st0" d="M70.7,27.3c-1.7,0-3,0.3-4,0.9v2.4c1.1-0.8,2.4-1.2,3.8-1.2c1,0,1.7,0.2,2.1,0.7c0.4,0.5,0.6,1.1,0.6,2v0.7
	h-2.2c-1.7,0-3,0.3-4,1c-0.9,0.7-1.4,1.7-1.4,2.9c0,1,0.4,2,1.1,2.7c0.7,0.7,1.7,1.1,3,1.1c1.7,0,2.9-0.5,3.5-1.6v1.5h0.8
	c0.9,0,1.7-0.7,1.7-1.7v-6.6C75.8,28.9,74.1,27.3,70.7,27.3z M73.2,36.2c0,0.7-0.2,1.3-0.7,1.8c-0.5,0.5-1.1,0.7-1.9,0.7
	c-0.7,0-1.3-0.2-1.6-0.5c-0.4-0.4-0.6-0.9-0.6-1.4c0-0.6,0.3-1.1,0.7-1.4c0.5-0.4,1.2-0.6,2.2-0.6h2L73.2,36.2L73.2,36.2z"/>
<path class="st0" d="M97.7,27.3c-1.8,0-3.3,0.6-4.5,1.9c-1.1,1.3-1.7,2.9-1.7,4.9c0,1.9,0.5,3.5,1.6,4.8c1.1,1.2,2.6,1.9,4.5,1.9
	c1.9,0,3.5-0.6,4.6-1.9c1.1-1.3,1.7-2.9,1.6-4.8c0-2-0.5-3.6-1.6-4.8C101.2,27.9,99.6,27.3,97.7,27.3z M100.3,37.3
	c-0.6,0.9-1.5,1.3-2.7,1.3c-1,0-2-0.5-2.6-1.3c-0.6-0.9-0.9-2-0.9-3.2c0-1.3,0.3-2.4,0.9-3.3c0.6-0.9,1.5-1.3,2.6-1.3
	c1.2,0,2.1,0.4,2.7,1.3c0.6,0.9,0.9,2,0.9,3.3C101.2,35.4,100.9,36.5,100.3,37.3z"/>
<path class="st0" d="M114,27.3c-1.9,0-3.3,0.8-4.1,2.4v-0.6c0-0.9-0.7-1.7-1.7-1.7l0,0h-0.9v13h0.9c0.9,0,1.7-0.7,1.7-1.7v0v-5.4
	c0-1.2,0.3-2.2,0.9-2.9c0.6-0.7,1.4-1,2.3-1c0.8,0,1.4,0.2,1.8,0.7c0.5,0.5,0.7,1.2,0.7,2.1v6.6c0,0.9,0.7,1.7,1.7,1.7l0,0h0.9v-8.8
	c0-1.4-0.4-2.4-1.1-3.2C116.3,27.7,115.2,27.3,114,27.3z"/>
<path class="st0" d="M148.1,27.3c-1.8,0-3.3,0.6-4.5,1.9c-1.1,1.3-1.7,2.9-1.7,4.9c0,1.9,0.5,3.5,1.6,4.8c1.1,1.2,2.6,1.9,4.5,1.9
	c1.9,0,3.5-0.6,4.6-1.9c1.1-1.3,1.7-2.9,1.6-4.8c0-2-0.5-3.6-1.6-4.8C151.6,27.9,150.1,27.3,148.1,27.3z M150.8,37.3
	c-0.6,0.9-1.5,1.3-2.7,1.3c-1,0-2-0.5-2.6-1.3c-0.6-0.9-0.9-2-0.9-3.2c0-1.3,0.3-2.4,0.9-3.3c0.6-0.9,1.5-1.3,2.6-1.3
	c1.2,0,2.1,0.4,2.7,1.3c0.6,0.9,0.9,2,0.9,3.3C151.7,35.4,151.4,36.5,150.8,37.3z"/>
<path class="st0" d="M160,29.8v-0.6c0-0.9-0.7-1.7-1.7-1.7l0,0h-0.9v13h0.9c0.9,0,1.7-0.7,1.7-1.7v0v-5.3c0-1,0.3-1.9,0.8-2.7
	c0.6-0.8,1.3-1.2,2.2-1.2c0.4,0,0.8,0.1,1.2,0.2v-2.5h-0.8C161.8,27.4,160.6,28.2,160,29.8z"/>
<path class="st0" d="M186.4,34.7c-0.6-0.6-1.4-1.1-2.4-1.5c-0.1,0-0.2-0.1-0.4-0.2s-0.4-0.2-0.4-0.2l-0.4-0.2
	c-0.1-0.1-0.3-0.1-0.4-0.2c-0.1-0.1-0.2-0.1-0.3-0.2c-0.1-0.1-0.2-0.1-0.3-0.2c-0.1-0.1-0.1-0.2-0.2-0.3c-0.1-0.1-0.1-0.2-0.1-0.3
	c0-0.1,0-0.2,0-0.3c0-0.4,0.2-0.8,0.5-1.1c0.4-0.3,0.8-0.4,1.4-0.4c1.3,0,2.4,0.2,3.2,0.7v-2.3c-0.8-0.4-1.9-0.6-3.3-0.6
	c-1.3,0-2.4,0.3-3.2,1c-0.9,0.7-1.3,1.5-1.3,2.7c0,1.6,1,2.9,3.1,3.7c0.7,0.3,1.2,0.5,1.5,0.7c0.3,0.2,0.6,0.4,0.9,0.7
	c0.3,0.3,0.4,0.6,0.4,1c0,0.4-0.2,0.8-0.6,1.1c-0.4,0.3-0.9,0.4-1.6,0.4c-1.3,0-2.6-0.4-3.7-1.1v2.4c1,0.5,2.3,0.8,3.9,0.8
	c1.4,0,2.5-0.3,3.3-1c0.8-0.7,1.2-1.6,1.2-2.7C187.2,36,187,35.3,186.4,34.7z"/>
<path class="st0" d="M88.4,27.5c-0.7,0-1.4,0.4-1.8,1l-2.4,3.5l-2.4-3.5c-0.4-0.6-1.1-1-1.8-1h-1.7l4.5,6.5l-4.5,6.5H80
	c0.7,0,1.4-0.4,1.8-1l2.4-3.5l2.4,3.5c0.4,0.6,1.1,1,1.8,1h1.7L85.6,34l4.5-6.5C90.1,27.5,88.4,27.5,88.4,27.5z"/>
<path class="st0" d="M175,27.5c-0.7,0-1.4,0.4-1.8,1l-3.7,5.5v-9c0-0.9-0.7-1.7-1.7-1.7h-0.9v17.3h0.9c0.9,0,1.7-0.7,1.7-1.7l0,0
	v-4.8l3.7,5.5c0.4,0.6,1.1,1,1.8,1h1.7l-4.5-6.5l4.5-6.5L175,27.5L175,27.5z"/>
<path class="st0" d="M138.2,24.4l-2.9,11.1l-2.9-11.1c-0.2-0.7-0.9-1.2-1.6-1.2l0,0c-0.8,0-1.4,0.5-1.6,1.2l-2.9,11.1l-2.9-11.1
	c-0.2-0.7-0.9-1.2-1.6-1.2h-1.3l4.5,17.3h1.3c0.8,0,1.4-0.5,1.6-1.2l2.9-11.1l2.9,11.1c0.2,0.7,0.9,1.2,1.6,1.2h1.3l4.5-17.3h-1.3
	C139.1,23.2,138.4,23.7,138.2,24.4z"/>
</svg>
